<?xml version="1.0" encoding="UTF-8" standalone="no"?>
<!-- Created with Inkscape (http://www.inkscape.org/) -->

<svg
   width="210mm"
   height="297mm"
   viewBox="0 0 210 297"
   version="1.1"
   id="svg1"
   inkscape:version="1.4.2 (ebf0e940d0, 2025-05-08)"
   sodipodi:docname="icons.svg"
   xmlns:inkscape="http://www.inkscape.org/namespaces/inkscape"
   xmlns:sodipodi="http://sodipodi.sourceforge.net/DTD/sodipodi-0.dtd"
   xmlns="http://www.w3.org/2000/svg"
   xmlns:svg="http://www.w3.org/2000/svg">
  <sodipodi:namedview
     id="namedview1"
     pagecolor="#ffffff"
     bordercolor="#000000"
     borderopacity="0.25"
     inkscape:showpageshadow="2"
     inkscape:pageopacity="0.0"
     inkscape:pagecheckerboard="0"
     inkscape:deskcolor="#d1d1d1"
     inkscape:document-units="mm"
     showgrid="true"
     inkscape:zoom="2.0132505"
     inkscape:cx="469.63854"
     inkscape:cy="91.146136"
     inkscape:window-width="1920"
     inkscape:window-height="1008"
     inkscape:window-x="0"
     inkscape:window-y="0"
     inkscape:window-maximized="1"
     inkscape:current-layer="layer1">
    <inkscape:grid
       id="grid1"
       units="mm"
       originx="0"
       originy="0"
       spacingx="0.99999998"
       spacingy="1"
       empcolor="#0099e5"
       empopacity="0.30196078"
       color="#0099e5"
       opacity="0.14901961"
       empspacing="5"
       enabled="true"
       visible="true" />
  </sodipodi:namedview>
  <defs
     id="defs1" />
  <g
     inkscape:label="Слой 1"
     inkscape:groupmode="layer"
     id="layer1">
    <path
       id="path4"
       style="fill:#008000;stroke:none;stroke-width:1.5;stroke-linecap:square"
       d="m 17.889039,2.1109669 -7.071367,5e-7 L 0.21135249,12.717288 7.2823534,19.788289 17.888674,9.1819687 Z m -1.767842,1.7678418 a 1.5,1.4999999 45 0 1 -3.65e-4,2.1211908 1.5,1.4999999 45 0 1 -2.120826,10e-8 1.5,1.4999999 45 0 1 -3.64e-4,-2.1211903 1.5,1.4999999 45 0 1 2.121555,-6e-7 z" />
    <rect
       style="fill:#0000ff;stroke:none;stroke-width:1.5;stroke-linecap:square"
       id="rect5"
       width="6.0000014"
       height="20"
       x="30.000004"
       y="-1.7284583e-07" />
    <rect
       style="fill:#0000ff;stroke:none;stroke-width:1.5;stroke-linecap:square"
       id="rect6"
       width="6"
       height="20.00001"
       x="7"
       y="-43.000004"
       transform="rotate(90)" />
    <rect
       style="fill:none;stroke:#ff0000;stroke-width:3;stroke-linecap:square;stroke-dasharray:none"
       id="rect7"
       width="16.000002"
       height="15.999999"
       x="52.000004"
       y="1.9999998" />
    <rect
       style="fill:none;stroke:#ff0000;stroke-width:3;stroke-linecap:square;stroke-dasharray:none"
       id="rect9"
       width="8"
       height="4.9999995"
       x="52.000004"
       y="1.9999998" />
    <rect
       style="fill:none;stroke:#ff0000;stroke-width:3;stroke-linecap:square;stroke-dasharray:none"
       id="rect10"
       width="8"
       height="4.9999995"
       x="60.000004"
       y="1.9999998" />
    <path
       sodipodi:type="star"
       style="fill:#ffcc00;stroke:#ffff00;stroke-width:1;stroke-linecap:square;stroke-dasharray:none"
       id="path10"
       inkscape:flatsided="false"
       sodipodi:sides="4"
       sodipodi:cx="110"
       sodipodi:cy="10"
       sodipodi:r1="9.0000029"
       sodipodi:r2="3.6000011"
       sodipodi:arg1="-3.1396676e-08"
       sodipodi:arg2="0.78539813"
       inkscape:rounded="0"
       inkscape:randomized="0"
       d="M 119,9.9999997 112.54559,12.545585 110,19.000003 107.45441,12.545585 101,10 107.45441,7.4544149 110,0.99999714 112.54559,7.4544147 Z"
       transform="translate(-24.999995,0.94962795)" />
    <path
       sodipodi:type="spiral"
       style="fill:none;fill-rule:evenodd;stroke:#ff00ff;stroke-width:3;stroke-dasharray:none;stroke-linecap:round"
       id="path11"
       sodipodi:cx="103"
       sodipodi:cy="11.999999"
       sodipodi:expansion="1"
       sodipodi:revolution="1.8870245"
       sodipodi:radius="9.2195444"
       sodipodi:argument="-12.565151"
       sodipodi:t0="0"
       d="m 103,11.999999 c 0.73489,8.96e-4 0.36136,0.991062 -0.001,1.221439 -0.9833,0.624307 -2.14131,-0.277709 -2.44139,-1.224418 -0.53676,-1.693441 0.83279,-3.3207738 2.44735,-3.6613364 2.36943,-0.4997894 4.52128,1.3903705 4.88128,3.6702734 0.47984,3.038751 -1.94818,5.729912 -4.8932,6.101235 -3.706004,0.467271 -6.942579,-2.50594 -7.321181,-6.116129 -0.458537,-4.3724231 3.063638,-8.1575585 7.339061,-8.5411334 2.5735,-0.2308852 5.1549,0.7422527 6.98957,2.5500681"
       transform="translate(2.9955342,-0.33568379)" />
    <rect
       style="fill:none;stroke:#ff0000;stroke-width:3;stroke-linecap:square;stroke-dasharray:none"
       id="rect7-3"
       width="16.000002"
       height="15.999999"
       x="52"
       y="25" />
    <g
       id="g13"
       transform="translate(-4.999997,-4.9999993)">
      <path
         style="fill:#008080;stroke:none;stroke-width:1;stroke-linecap:round;stroke-dasharray:none"
         id="path12"
         sodipodi:type="arc"
         sodipodi:cx="135"
         sodipodi:cy="24.999998"
         sodipodi:rx="9.999999"
         sodipodi:ry="9.999999"
         sodipodi:start="3.1415927"
         sodipodi:end="0"
         sodipodi:arc-type="slice"
         d="m 125,24.999998 a 9.999999,9.999999 0 0 1 10,-9.999999 9.999999,9.999999 0 0 1 10,9.999999 h -10 z" />
      <ellipse
         style="fill:#008080;stroke:none;stroke-width:1;stroke-linecap:round;stroke-dasharray:none"
         id="path13"
         cx="135"
         cy="10.000003"
         rx="5"
         ry="4.9999995" />
    </g>
  </g>
</svg>
